<svg version="1.1" xmlns="http://www.w3.org/2000/svg" xmlns:xlink="http://www.w3.org/1999/xlink" width="38.8169" height="30.89201" viewBox="0,0,38.8169,30.89201"><g transform="translate(-224.24611,-161.91744)"><g data-paper-data="{&quot;isPaintingLayer&quot;:true}" fill-rule="nonzero" stroke="none" stroke-linecap="butt" stroke-linejoin="miter" stroke-miterlimit="10" stroke-dasharray="" stroke-dashoffset="0" style="mix-blend-mode: normal"><path d="M227.4547,192.80945v-25.6189h25.0906v25.6189z" fill="#50e868" stroke-width="0"/><path d="M224.46955,168.16314c0.67109,-1.05458 1.72567,-0.38348 1.72567,-0.38348c1.32422,0.84373 2.69951,1.47861 4.11092,1.9435c0.1587,0.05134 0.31751,0.10138 0.47643,0.15012c3.40274,1.02427 7.0035,1.09664 10.59639,0.75276c-0.39148,-1.89493 -1.16594,-4.44902 -0.37985,-5.8539c1.19875,-2.14237 4.27162,-1.70799 6.26934,-1.78198c1.78164,-0.06599 5.59132,-1.46051 7.13175,-0.96736c2.74899,0.88005 2.03627,3.9608 1.56013,6.06761c1.68535,0.18519 3.36723,0.37821 5.04855,0.50263c0,0 0.33903,0.02608 0.64984,0.22786l0.41088,0.09482c0.56727,0.11835 0.99341,0.62123 0.99341,1.22364c0,0.45088 -0.23872,0.846 -0.59666,1.06587l-1.01591,0.64649c-0.69783,0.63858 -1.13809,1.61739 -1.99595,2.01427c-1.00637,0.46558 -3.30429,0.12337 -4.44149,0.12337c-3.77508,0 -7.53373,-0.30168 -11.3,-0.3c0,0 -0.31445,0 -0.62792,-0.15771c-6.01162,0.64207 -11.93218,-0.40068 -17.69591,-3.05734c0,0 -0.48164,-0.22229 -0.67259,-0.69102c-0.26112,-0.22779 -0.76188,-0.81112 -0.24705,-1.62015z" fill="#9966ff" stroke-width="0.5"/></g></g></svg>