<svg version="1.1" xmlns="http://www.w3.org/2000/svg" xmlns:xlink="http://www.w3.org/1999/xlink" width="79.12232" height="75.23224" viewBox="0,0,79.12232,75.23224"><g transform="translate(-200.4892,-140.91182)"><g data-paper-data="{&quot;isPaintingLayer&quot;:true}" fill-rule="nonzero" stroke="#000000" stroke-linejoin="miter" stroke-miterlimit="10" stroke-dasharray="" stroke-dashoffset="0" style="mix-blend-mode: normal"><path d="M202.23921,179.19334c0,0 0.37683,-2.29687 4.16009,-6.08013c7.99409,-7.99409 21.19585,-21.19584 25.92055,-25.92054c3.32166,-3.32166 7.36481,-4.4801 7.36481,-4.4801c0,0 3.61981,0.74441 6.71548,3.84008c2.04489,2.04488 5.65824,5.65825 9.76831,9.76832c6.09735,6.09734 13.28785,13.28785 18.07227,18.07227c2.90764,2.90764 3.52008,5.44011 3.52008,5.44011c0,0 -2.52697,5.08703 -5.12011,7.68016c-4.61369,4.61369 -18.93874,18.93874 -26.88056,26.88056c-3.25678,3.25678 -5.44012,2.88007 -5.44012,2.88007c0,0 -2.31029,0.24976 -5.76012,-3.20007c-8.53472,-8.53472 -24.04392,-24.04393 -28.8006,-28.80061c-2.72685,-2.72685 -3.52008,-6.08013 -3.52008,-6.08013z" fill="#ffd909" stroke-width="3.5" stroke-linecap="butt"/><path d="M233.46698,158.88348c0,-3.42746 2.77849,-6.20595 6.20595,-6.20595c3.42746,0 6.20595,2.77849 6.20595,6.20595c0,3.42746 -2.7785,6.20594 -6.20595,6.20594c-3.42746,0 -6.20595,-2.77849 -6.20595,-6.20594z" fill="#000000" stroke-width="2.5" stroke-linecap="butt"/><path d="M236.46295,187.77325v19.25984" fill="none" stroke-width="5.5" stroke-linecap="round"/><path d="M243.3109,187.77325v19.68784" fill="none" stroke-width="5.5" stroke-linecap="round"/><path d="M239.88692,174.93335v13.69589" fill="none" stroke-width="13" stroke-linecap="round"/><path d="M241.76275,171.24521c0,0 4.70808,-1.34937 5.48588,1.46266c1.01366,3.66476 0.93406,19.08118 0.93406,19.08118" fill="none" stroke-width="4.5" stroke-linecap="round"/><path d="M230.89691,191.57328c0,0 -0.07959,-15.41642 0.93406,-19.08118c0.77779,-2.81203 5.48588,-1.46266 5.48588,-1.46266" data-paper-data="{&quot;index&quot;:null}" fill="none" stroke-width="4.5" stroke-linecap="round"/></g></g></svg>