<svg version="1.1" xmlns="http://www.w3.org/2000/svg" xmlns:xlink="http://www.w3.org/1999/xlink" width="91.80377" height="67.86609" viewBox="0,0,91.80377,67.86609"><g transform="translate(-195.28328,-122.78055)"><g data-paper-data="{&quot;isPaintingLayer&quot;:true}" fill="#a8fdf5" fill-rule="nonzero" stroke="none" stroke-width="0.5" stroke-linecap="butt" stroke-linejoin="miter" stroke-miterlimit="10" stroke-dasharray="" stroke-dashoffset="0" style="mix-blend-mode: normal"><path d="M225.77538,189.72396c-4.02689,0.4549 -7.76002,-0.91744 -12.01575,-3.12893c-4.05636,-2.10789 -8.35723,-4.33862 -11.23762,-8.0434c-7.40938,-9.52999 -8.92627,-23.3388 -5.48376,-34.64216c1.3168,-3.41412 2.72908,-7.41176 5.39496,-10.07079c5.11514,-5.10198 13.1026,-6.17222 19.77042,-7.79094c17.30113,-4.20012 39.06234,-6.16078 53.7731,5.57911c4.2021,3.69698 6.9837,8.04382 8.21437,13.61214c0.56088,2.53777 0.40607,5.18622 0.78607,7.75729c0.76274,5.16066 1.11521,9.81645 -1.25284,14.70407c-1.06941,2.20725 -3.06293,3.85301 -4.8476,5.53542c-7.86635,7.41556 -15.36104,13.45398 -26.2141,15.63718c-9.12914,1.14114 -17.85848,2.85289 -26.88724,0.85101zM232.95689,185.64346c6.28135,0.28232 12.52272,-0.90818 18.90481,-1.70594c9.81257,-1.94875 16.49478,-7.67773 23.59733,-14.35133c2.60796,-2.45046 4.31613,-3.90943 5.08995,-7.74634c0.76996,-3.81773 -0.66892,-8.27298 -1.04007,-12.03642c-0.58206,-5.90212 -2.19676,-10.39217 -6.74097,-14.34204c-13.2963,-10.66661 -33.81327,-8.35011 -49.38507,-4.55471c-5.5369,1.34954 -13.07337,2.11008 -17.35667,6.40912c-2.12203,2.12984 -3.21974,5.50776 -4.26236,8.22729c-3.01425,9.67633 -1.59656,21.72002 4.68184,29.90938c2.38982,3.11722 6.2251,4.94992 9.60186,6.69672c2.51468,1.30086 4.76637,2.40193 7.08452,2.67537c0.67853,-0.41106 1.42885,-0.41106 1.42885,-0.41106l0.91193,0.08809c0.22387,0.06141 0.4476,0.12006 0.6712,0.17604c0.98095,-0.21843 1.99541,-0.61458 3.06495,-1.22956c0,0 2.19474,-1.19714 3.39187,0.9976c0.23993,0.43986 0.34361,0.83966 0.35603,1.19778z"/><path d="M286.774,161.39804c1.11803,2.23607 -1.11803,3.3541 -1.11803,3.3541l-2.2968,1.12998c-4.25728,1.54559 -8.66284,2.95664 -12.91275,4.60558c0.05178,2.16479 0.07242,4.33622 0.07242,6.51436l-0.38243,1.55299c0,0 -0.79057,2.37171 -3.16228,1.58114c-2.37171,-0.79057 -1.58114,-3.16228 -1.58114,-3.16228l0.12585,0.02815c0,-1.57458 -0.01105,-3.14446 -0.03739,-4.70995c-4.88462,1.152 -9.36962,3.05449 -14.47153,3.63708c-12.2088,1.39415 -24.45492,1.08795 -36.62292,-0.15875c0.35674,1.23372 0.78091,2.41482 1.27627,3.52009l0.9681,1.93043c0,0 1.11803,2.23607 -1.11803,3.3541c-2.23607,1.11803 -3.3541,-1.11803 -3.3541,-1.11803l-1.06502,-2.13581c-0.83788,-1.89892 -1.5052,-3.97672 -2.0096,-6.15191c-2.50873,-0.31076 -5.01341,-0.65694 -7.51302,-1.03186c0,0 -2.47234,-0.37085 -2.10149,-2.84319c0.37085,-2.47234 2.84319,-2.10149 2.84319,-2.10149c1.96183,0.2943 3.9265,0.57057 5.89357,0.82541c-0.55143,-4.85783 -0.38778,-9.87377 0.41689,-14.25606c0.09064,-0.4936 0.20879,-0.98124 0.34764,-1.46424c-2.90719,-0.98061 -5.73826,-2.22476 -8.55258,-3.47498l-2.06248,-0.67524c0,0 -2.37171,-0.79057 -1.58114,-3.16228c0.79057,-2.37171 3.16228,-1.58114 3.16228,-1.58114l2.51204,0.8496c2.72876,1.21337 5.48235,2.44952 8.31781,3.38921c0.4573,-1.06068 0.90576,-2.11968 1.26526,-3.19243c2.08809,-6.23083 3.13866,-11.75384 6.57248,-17.49656c0,0 1.28624,-2.14373 3.42997,-0.85749c2.14373,1.28624 0.85749,3.42997 0.85749,3.42997c-3.26415,5.42001 -4.15928,10.64917 -6.13452,16.55819c-0.31283,0.93586 -0.71579,1.8679 -1.13316,2.80322c0.63264,0.10886 1.27054,0.19579 1.91425,0.25761c5.65585,1.04575 11.69487,0.4839 17.44153,0.4839c9.53087,0 19.23766,0.20549 28.68116,-1.13318c-0.64066,-3.72862 -1.48968,-7.43981 -2.60813,-11.13802c-1.26016,-4.16681 -3.57953,-7.93833 -5.64932,-11.73292c0,0 -1.19713,-2.19474 0.99761,-3.39187c2.19474,-1.19713 3.39187,0.99761 3.39187,0.99761c2.23779,4.10265 4.66433,8.16642 6.04112,12.66451c1.20149,3.92537 2.10659,7.8727 2.78409,11.84244c3.78782,-0.5298 7.43787,-1.02297 10.60679,-3.45379c0,0 2,-1.5 3.5,0.5c1.5,2 -0.5,3.5 -0.5,3.5c-4.00211,2.95028 -8.24171,3.64805 -12.88017,4.37437c0.43984,3.49763 0.72644,7.01264 0.90617,10.54536c3.77244,-1.41312 7.65344,-2.65684 11.39862,-4.02082l1.76944,-0.90314c0,0 2.23607,-1.11803 3.3541,1.11803zM250.46472,170.959c5.2023,-0.59069 9.69263,-2.71346 14.76357,-3.7095c0.03587,-0.01608 0.07175,-0.03214 0.10766,-0.04816c-0.16363,-3.94486 -0.45497,-7.86366 -0.94287,-11.76143c-9.69296,1.36618 -19.62892,1.18956 -29.41244,1.18956c-5.99466,0 -12.23187,0.52456 -18.13806,-0.53266c-1.03789,-0.10748 -2.06129,-0.27031 -3.07244,-0.4787c-0.08292,0.31331 -0.15409,0.62821 -0.21093,0.94494c-0.76491,4.26196 -0.90406,9.30325 -0.24581,14.06572c12.33834,1.34712 24.75673,1.73758 37.15132,0.33024z"/></g></g></svg>