<svg version="1.1" xmlns="http://www.w3.org/2000/svg" xmlns:xlink="http://www.w3.org/1999/xlink" width="117.50932" height="141.99523" viewBox="0,0,117.50932,141.99523"><g transform="translate(-181.24534,-109.00239)"><g data-paper-data="{&quot;isPaintingLayer&quot;:true}" fill="#008c7f" fill-rule="nonzero" stroke="none" stroke-width="0.5" stroke-linecap="butt" stroke-linejoin="miter" stroke-miterlimit="10" stroke-dasharray="" stroke-dashoffset="0" style="mix-blend-mode: normal"><path d="M188.23169,134.04548c-0.41987,5.29683 -1.05512,10.59358 -1.19811,15.92913c-0.5,18.65762 -0.78823,37.2672 -0.78823,55.95729c0,9.8209 0.23329,19.08646 1.93583,28.76648c0.40436,2.29907 -0.13804,6.34909 1.43118,8.29599c1.78364,2.21294 7.40524,2.65824 9.91308,2.64926c9.20477,-0.03297 18.41033,0 27.61516,0c13.54586,0 27.37515,0.79786 40.9037,0.00311c3.36572,-0.19772 6.39366,-1.19411 9.68163,-1.56238c3.03029,-0.33941 6.18801,-0.43335 9.25212,-0.75276c0.4855,-0.05061 1.17486,0.33558 1.46323,-0.05826c0.41602,-0.5682 0.11122,-1.40493 0.12361,-2.10903c0.07623,-4.33147 -0.01493,-8.67966 -0.01493,-13.01175c0,-12.57077 -0.67673,-25.4093 0.3867,-37.94307c0.64449,-7.59608 2.90075,-14.96852 3.97155,-22.45525c1.22397,-8.5576 0.77028,-17.47016 0.77028,-26.12619c0,-4.63283 -0.39996,-9.17285 -0.3945,-13.80758c0.00208,-1.76932 0.44766,-5.09917 -1.19055,-6.46841c-4.54645,-3.79998 -12.16688,-3.91455 -17.71774,-4.44602c-2.77301,-0.2655 -5.46232,-1.13261 -8.22899,-1.45757c-9.05538,-1.0636 -18.62914,-0.50821 -27.74276,-0.51988c-7.57062,-1.08151 -15.71332,-0.78271 -23.36438,-0.78271c-5.32287,0 -11.29039,-0.89318 -16.18581,1.01344c-2.38835,0.93019 -7.63263,1.51523 -9.00869,4.06641c-1.81018,3.35604 -0.83819,8.90464 -0.83819,12.53976v0.3945c0,0 0,1.14529 -0.77517,1.8855zM183.82339,124.82679c0.01724,-2.94482 0.34539,-5.87966 1.71231,-8.13671c2.41296,-3.98431 7.55172,-4.68732 11.50543,-6.19065c5.64794,-2.14754 11.91769,-1.35357 17.99843,-1.35357c7.75801,0 16.04104,-0.30153 23.71883,0.79529c9.19397,-0.01269 18.82742,-0.51464 27.96659,0.54085c2.74025,0.31647 5.4014,1.18864 8.14757,1.44876c5.90483,0.55932 11.5413,1.04055 16.90094,3.79106c1.26168,0.64747 2.73496,1.01382 3.75603,1.99794c2.85896,2.7555 2.75053,6.52368 2.75447,10.10068c0.00511,4.63249 0.3945,9.17321 0.3945,13.80758c0,8.86282 0.443,17.97235 -0.80773,26.73711c-1.05979,7.42667 -3.31713,14.73375 -3.95188,22.26567c-1.0445,12.39395 -0.36892,25.09131 -0.36892,37.52174c0,4.23232 0.62614,9.36698 -0.01492,13.55734c-0.26211,1.71326 -0.33436,3.66935 -1.4544,4.99201c-0.93379,1.10272 -2.66768,1.13252 -4.05981,1.51975c-3.19997,0.8901 -6.46042,0.47022 -9.68399,0.82524c-3.38802,0.37315 -6.56795,1.38895 -10.04348,1.59364c-13.61153,0.80164 -27.524,0.00311 -41.15277,0.00311c-9.20487,0 -18.41034,0.03002 -27.61516,0c-4.09053,-0.01334 -10.90444,-0.98862 -13.75705,-4.45178c-2.45628,-2.982 -1.89097,-7.12264 -2.51385,-10.64011c-1.76301,-9.95599 -2.00919,-19.52061 -2.00919,-29.61985c0,-18.73089 0.28974,-37.38306 0.78977,-56.08134c0.21494,-8.03719 1.59318,-16.01351 1.57724,-24.00261c0,0 0,-0.48107 0.21103,-1.02115z"/></g></g></svg>