<svg version="1.1" xmlns="http://www.w3.org/2000/svg" xmlns:xlink="http://www.w3.org/1999/xlink" width="44.20192" height="34.73331" viewBox="0,0,44.20192,34.73331"><g transform="translate(-217.84844,-202.7065)"><g data-paper-data="{&quot;isPaintingLayer&quot;:true}" fill="#a8fdf5" fill-rule="nonzero" stroke="none" stroke-width="0.5" stroke-linecap="butt" stroke-linejoin="miter" stroke-miterlimit="10" stroke-dasharray="" stroke-dashoffset="0" style="mix-blend-mode: normal"><path d="M223.54435,222.78864c2.41322,0 4.88722,0.08113 7.38253,0.14953c-0.12797,-0.58899 -0.24238,-1.17845 -0.33523,-1.76823c-2.73908,-0.10777 -4.9591,-0.06328 -7.53641,-0.53068c0.11448,0.72179 0.27834,1.44139 0.48772,2.14939c0.00092,-0.00001 0.00139,-0.00001 0.00139,-0.00001zM246.85905,229.11379c0.14856,-0.5875 0.27526,-1.19563 0.38059,-1.81971c-3.23577,0.53261 -6.57539,0.70497 -9.93174,0.72579c0.04329,0.19706 0.08481,0.39392 0.12419,0.59058l0.03876,-0.11946c0,0 0.66737,1.33474 -0.06034,2.45739c2.38528,-0.3096 4.76181,-0.711 7.1627,-1.02339c0.6015,-0.07827 1.23012,-0.15008 1.8728,-0.22799c0.11108,-0.23327 0.25364,-0.42523 0.41304,-0.5832zM247.59693,220.67433c-3.94409,0.47468 -7.89617,0.65127 -11.91588,0.626c0.10885,0.57682 0.23682,1.15373 0.37519,1.73027c3.92417,0.01134 7.83452,-0.1657 11.57953,-0.89153c-0.00255,-0.48691 -0.01556,-0.97574 -0.03884,-1.46475zM245.15759,209.80405c0,0 -0.08569,-0.18853 -0.15349,-0.48172c-2.97159,-0.70706 -6.01734,-1.07181 -9.11022,-1.10061c-0.30829,2.67692 -0.62458,5.38397 -0.6345,8.07543c3.96498,0.04338 7.85919,-0.10802 11.74544,-0.57449c-0.41879,-2.15041 -1.04022,-4.1792 -1.84723,-5.91861zM232.99872,230.72706l-0.46952,-1.13602c-0.10833,-0.54243 -0.23104,-1.0858 -0.3617,-1.62997c-2.08666,-0.04952 -4.16256,-0.11651 -6.20667,-0.15057c0.63563,0.89826 1.35468,1.71349 2.1434,2.4121c1.07255,-0.32732 2.10206,0.31612 2.10206,0.31612l0.70812,0.8907c0.84735,0.00098 1.68999,-0.02906 2.52934,-0.08246c-0.29669,-0.3232 -0.44503,-0.61989 -0.44503,-0.61989zM230.86389,208.27162c-1.37339,0.13821 -2.70432,0.48089 -3.86244,1.28204c-2.12955,1.47316 -3.36289,3.61162 -3.86857,6.00273c2.57839,0.62517 4.56683,0.52978 7.135,0.6011c0.02629,-2.62973 0.30481,-5.26908 0.59601,-7.88587zM233.9587,202.72399c0.59317,0.05932 1.03075,0.24593 1.35322,0.49576c0.05896,0.00006 0.11796,0.0001 0.177,0.00011c5.78679,0.00081 11.4405,1.05076 16.80525,3.17926c3.59175,1.04934 6.61151,2.79142 8.34257,6.41718c2.43724,5.10488 1.84743,14.61485 -2.74482,18.23517c-3.52436,2.77845 -8.41973,3.27554 -12.68093,3.83266c-3.82822,0.50051 -7.58732,1.18649 -11.41672,1.44301c-0.89219,1.54428 -2.77524,1.03072 -2.77524,1.03072c-12.24618,-3.54151 -18.80632,-23.79929 -6.86555,-31.91384c2.4865,-1.68974 5.1523,-2.10096 7.9284,-2.19757c0.40752,-0.36046 1.00453,-0.6097 1.87683,-0.52247zM254.76488,227.15c1.19931,-0.91136 1.6361,-1.89403 1.78707,-3.05371c-1.37407,0.63815 -2.73404,1.2851 -4.14387,1.83095c-0.08588,0.89591 -0.20445,1.77831 -0.35628,2.64038c0.98236,-0.34762 1.90444,-0.80313 2.71307,-1.41761zM252.50773,219.9224c0.01137,0.19185 0.02137,0.38376 0.03001,0.57567c0.73083,-0.32955 1.45443,-0.67841 2.17943,-1.02455c-0.73732,0.16179 -1.47367,0.31121 -2.20944,0.44888zM250.99627,211.21558c0.36384,1.20577 0.66648,2.46036 0.90631,3.74355c1.13882,-0.22023 2.27922,-0.4718 3.42278,-0.7577c-0.81005,-1.35194 -2.13909,-2.38779 -4.32909,-2.98585z"/></g></g></svg>