<svg version="1.1" xmlns="http://www.w3.org/2000/svg" xmlns:xlink="http://www.w3.org/1999/xlink" width="122.94977" height="213.05563" viewBox="0,0,122.94977,213.05563"><defs><linearGradient x1="184.33829" y1="143.66979" x2="159.80678" y2="144.72502" gradientUnits="userSpaceOnUse" id="color-1"><stop offset="0" stop-color="#ffd266"/><stop offset="1" stop-color="#ffae96"/></linearGradient><linearGradient x1="240.35664" y1="78.11713" x2="240.35664" y2="128.44117" gradientUnits="userSpaceOnUse" id="color-2"><stop offset="0" stop-color="#ffd266"/><stop offset="1" stop-color="#ffae96"/></linearGradient><linearGradient x1="217.26122" y1="145.66405" x2="192.71935" y2="146.44204" gradientUnits="userSpaceOnUse" id="color-3"><stop offset="0" stop-color="#ffd266"/><stop offset="1" stop-color="#ffae96"/></linearGradient></defs><g transform="translate(-158.30677,-50.93854)"><g data-paper-data="{&quot;isPaintingLayer&quot;:true}" fill-rule="nonzero" stroke-width="3" stroke-linejoin="miter" stroke-miterlimit="10" stroke-dasharray="" stroke-dashoffset="0" style="mix-blend-mode: normal"><g><path d="M178.2009,203.06077l16.03456,-7.35573l0.40989,13.98532z" fill="#becece" stroke="#003584" stroke-linecap="round"/><path d="M196.22157,196.71528l24.60106,-0.72101l0.3219,10.98323l-24.60106,0.72101z" fill="#ffd909" stroke="#bf0000" stroke-linecap="butt"/><path d="M190.94066,193.69778l9.48787,-0.27807l0.54286,18.52239l-9.48787,0.27807z" fill="#ffd909" stroke="#bf0000" stroke-linecap="butt"/></g><path d="M178.96102,137.81571l57.27288,-2.46361l0.47221,10.9778l-57.27288,2.46361z" fill="#ffd909" stroke="#bf0000" stroke-linecap="butt"/><path d="M171.54491,131.93166c6.77419,-0.29139 12.50198,4.96395 12.79337,11.73814c0.29139,6.77419 -4.96396,12.50198 -11.73814,12.79337c-6.77419,0.29139 -12.50198,-4.96395 -12.79337,-11.73814c-0.29139,-6.7742 4.96395,-12.50198 11.73814,-12.79337z" fill="url(#color-1)" stroke="#670000" stroke-linecap="butt"/><path d="M271.0075,75.06571c0,13.19091 -12.38177,23.88424 -27.65544,23.88424c-15.27367,0 -27.65544,-10.69334 -27.65544,-23.88424c0,-13.1909 7.35351,-22.62717 22.62718,-22.62717c18.51136,0 17.28058,7.67642 22.35341,12.83962c4.09125,4.16414 10.33029,3.89855 10.33029,9.78755z" fill="#ff9f00" stroke="#bf0000" stroke-linecap="butt"/><path d="M220.43505,204.71543v-72.28126h38.96903v72.28126z" fill="#ffd909" stroke="#bf0000" stroke-linecap="butt"/><path d="M224.17799,199.6589v-67.25299h7.54239v67.253z" fill="#09addc" stroke="#007cbf" stroke-linecap="butt"/><path d="M215.19464,103.27915c0,-13.8966 11.26541,-25.16201 25.16201,-25.16201c13.8966,0 25.16202,11.26542 25.16202,25.16201c0,13.8966 -11.26542,25.16202 -25.16202,25.16202c-13.8966,0 -25.16201,-11.26542 -25.16201,-25.16202z" fill="url(#color-2)" stroke="#670000" stroke-linecap="butt"/><path d="M246.14836,203.40184v-67.25299h7.54239v67.253z" fill="#09addc" stroke="#007cbf" stroke-linecap="butt"/><path d="M215.73519,146.59029v-17.59892h47.13995v17.59892z" fill="#09addc" stroke="#002dc5" stroke-linecap="butt"/><path d="M216.33546,206.90116v-17.59892h47.13995v17.59892z" fill="#09addc" stroke="#002dc5" stroke-linecap="butt"/><path d="M220.09634,138.39995c0,-4.16555 3.37685,-7.54239 7.54239,-7.54239c4.16555,0 7.54239,3.37684 7.54239,7.54239c0,4.16555 -3.37684,7.54239 -7.54239,7.54239c-4.16555,0 -7.54239,-3.37685 -7.54239,-7.54239z" fill="#ffffff" stroke="#007287" stroke-linecap="butt"/><g><path d="M218.29379,203.49621l15.91303,-7.61506l0.63686,13.97683z" fill="#becece" stroke="#003584" stroke-linecap="round"/><path d="M236.20907,196.85902l24.58611,-1.12028l0.50015,10.97656l-24.58611,1.12028z" fill="#ffd909" stroke="#bf0000" stroke-linecap="butt"/><path d="M230.87987,193.92764l9.4821,-0.43206l0.84347,18.51113l-9.4821,0.43206z" fill="#ffd909" stroke="#bf0000" stroke-linecap="butt"/></g><path d="M242.69527,138.37169c0,-4.16555 3.37685,-7.54239 7.54239,-7.54239c4.16555,0 7.54239,3.37684 7.54239,7.54239c0,4.16555 -3.37684,7.54239 -7.54239,7.54239c-4.16555,0 -7.54239,-3.37685 -7.54239,-7.54239z" fill="#ffffff" stroke="#007287" stroke-linecap="butt"/><path d="M212.55396,82.6081c0,0 -0.28499,-18.22745 20.11305,-18.22745c14.85151,0 20.65618,8.72404 21.40903,16.6389c0.11826,1.2433 5.78744,6.09158 10.62578,6.20775c5.97095,0.14337 9.44835,-5.24773 9.44835,-5.24773" fill="none" stroke="#bf0000" stroke-linecap="round"/><path d="M211.95044,139.74959l57.92527,-1.83627l0.34815,10.98243l-57.92528,1.83627z" fill="#ffd909" stroke="#bf0000" stroke-linecap="butt"/><path d="M204.60129,133.78211c6.77705,-0.21484 12.4451,5.10488 12.65993,11.88193c0.21484,6.77705 -5.10489,12.4451 -11.88194,12.65993c-6.77705,0.21484 -12.4451,-5.10488 -12.65993,-11.88194c-0.21484,-6.77705 5.10488,-12.44509 11.88194,-12.65992z" fill="url(#color-3)" stroke="#670000" stroke-linecap="butt"/><g stroke="#000000" stroke-linecap="round"><path d="M236.99196,112.03281l-9.70487,-6.11047l-9.70487,6.11047l9.70487,-26.23909z" fill="#ffffff"/><path d="M234.75788,108.57454l-6.49393,-4.08877v-13.4689z" fill="#000000"/></g><g stroke="#000000" stroke-linecap="round"><path d="M262.73354,112.00455l-9.70487,-6.11047l-9.70487,6.11047l9.70487,-26.23909z" fill="#ffffff"/><path d="M260.49948,108.54628l-6.49393,-4.08877v-13.4689z" fill="#000000"/></g><path d="M241.05498,126.02008c-0.688,0.03816 -0.97508,-7.54266 -0.97508,-7.54266h1.99659c0,0 -0.21744,7.49807 -1.02151,7.54266z" fill="#000000" stroke="#000000" stroke-linecap="round"/><path d="M243.19492,77.46567l-14.29911,7.69952v-17.59892z" fill="#ffd100" stroke="#000000" stroke-linecap="round"/><path d="M278.42805,97.79108l-12.188,10.73313l-3.97906,-17.14319z" fill="#ffd100" stroke="#000000" stroke-linecap="round"/><path d="M218.06065,91.35275l-3.97905,17.14319l-12.188,-10.73312z" data-paper-data="{&quot;index&quot;:null}" fill="#ffd100" stroke="#000000" stroke-linecap="round"/><g fill="#becece" stroke="#003584" stroke-linecap="round"><path d="M180.82439,202.32124l12.09043,16.58018h-24.57726z"/><path d="M180.90328,254.80028l-8.16921,-35.92371h16.60626z"/></g><g fill="#becece" stroke="#003584" stroke-linecap="round"><path d="M223.49215,204.85421l12.09043,16.58017h-24.57727z"/><path d="M223.57105,257.33324l-8.16921,-35.92371h16.60626z"/></g></g></g></svg>